# xmcd
#
# Track frame offsets:
#	150
#	20269
#	38950
#	55947
#	75204
#	92968
#	107560
#	123773
#	141456
#	161428
#	180062
#	197458
#	218167
#	230311
#
# Disc length: 4672 seconds
#
# Revision: 1
# Processed by: cddbd v1.5.2PL0 Copyright (c) Steve Scherf et al.
# Submitted via: EasyCDDAExtractor 2010.4.0.0
#
DISCID=a5123e0e
DTITLE=Boyd Kosiyabong - Rhythm and Boyd E1EVEN1H
DYEAR=2006
DGENRE=R&B
TTITLE0=Stamp - สมมติ (What If)
TTITLE1=Champ - ที่ฉันรู้ (That's All I Know)
TTITLE2=Corzon (Jay and Sean) - อย่าเพิ่งไป (Please Don't Go!)
TTITLE3=Katto - คำถามโง่ๆ (When Ever I See Her)
TTITLE4=Mariam and Champ - กิเลสตัณหา (Lust)
TTITLE5=Stamp - เธอไม่เคยเปลี่ยน (Two Steps)
TTITLE6=Life, Wut and Jay - ใกล้สวรรค์ (Just Like Heaven)
TTITLE7=Two - จะทำยังไง (What Will I Do?)
TTITLE8=Marium - สีเทา (Gray)
TTITLE9=ID - อย่าให้ฉันรอเลย (Over The Hill)
TTITLE10=Chris - เพื่อนเก่า (Old Friend)
TTITLE11=Mai - ฉันดีใจที่มีเธอ (I'm Glad)
TTITLE12=Hidden Track
TTITLE13=DATA
EXTD=
EXTT0=
EXTT1=
EXTT2=
EXTT3=
EXTT4=
EXTT5=
EXTT6=
EXTT7=
EXTT8=
EXTT9=
EXTT10=
EXTT11=
EXTT12=
EXTT13=
PLAYORDER=
